<svg xmlns="http://www.w3.org/2000/svg" viewBox="0 0 800 600" role="img" aria-label="Animal shelter support">
  <defs>
    <linearGradient id="bg4" x1="0" y1="0" x2="1" y2="1">
      <stop offset="0" stop-color="#fee2e2"/>
      <stop offset="1" stop-color="#dbeafe"/>
    </linearGradient>
  </defs>
  <rect width="800" height="600" fill="url(#bg4)"/>
  <g transform="translate(120,140)">
    <rect x="0" y="220" width="560" height="120" rx="16" fill="#fff" stroke="#cbd5e1"/>
    <g fill="#ef4444" transform="translate(220,40)">
      <path d="M80 40c-22 0-40 18-40 40 0 36 40 56 40 56s40-20 40-56c0-22-18-40-40-40z"/>
      <circle cx="36" cy="20" r="16"/>
      <circle cx="124" cy="20" r="16"/>
      <circle cx="56" cy="10" r="12"/>
      <circle cx="104" cy="10" r="12"/>
    </g>
    <g transform="translate(40,260)">
      <rect x="0" y="0" width="100" height="20" rx="10" fill="#fca5a5"/>
      <rect x="120" y="0" width="80" height="20" rx="10" fill="#93c5fd"/>
      <rect x="220" y="0" width="140" height="20" rx="10" fill="#86efac"/>
    </g>
  </g>
</svg>
